<svg id="eQbVUWEISvo1" xmlns="http://www.w3.org/2000/svg" xmlns:xlink="http://www.w3.org/1999/xlink" viewBox="0 0 328.5 328.5" shape-rendering="geometricPrecision" text-rendering="geometricPrecision"><g transform="translate(0 0.000007)"><g><polygon points="96.333,150.918 96.333,135.918 55.667,135.918 55.667,95.251 40.667,95.251 40.667,135.918 0,135.918 0,150.918 40.667,150.918 40.667,191.583 55.667,191.583 55.667,150.918" fill="#273b69" stroke="#273b69"/><path d="M259.383,185.941h-113.525c-38.111,0-69.117,31.006-69.117,69.117v39.928h251.759v-39.928c0-38.11-31.006-69.117-69.117-69.117ZM313.5,279.987h-221.759h21.875717c27.263844,0,2.400283,0,32.241283,0h101.805949c29.84,0,19.690554,0,48.469056,0h17.366995v0Z" transform="translate(.643235 0)" fill="#273b69" stroke="#273b69" stroke-linecap="round" stroke-linejoin="round"/></g></g><ellipse rx="75.580086" ry="72.386987" transform="matrix(.903848 0 0 1 204.986061 100.643168)" fill="#273b69" stroke="#273b69"/></svg>
