<svg cache-id="0906b3195c8349b7b117e14b98577d73" id="eETWm5aGKgb1" xmlns="http://www.w3.org/2000/svg" xmlns:xlink="http://www.w3.org/1999/xlink" viewBox="0 0 24 24" shape-rendering="geometricPrecision" text-rendering="geometricPrecision"><path d="M19,24h-3c-.551,0-1-.449-1-1v-5h-2.5c-.202,0-.385-.122-.462-.309-.078-.187-.035-.402.108-.545l5-5c.195-.195.512-.195.707,0l5,5c.143.143.186.358.108.545-.076.187-.259.309-.461.309h-2.5v5c0,.551-.449,1-1,1Zm-5.293-7h1.793c.276,0,.5.224.5.5v5.5h3v-5.5c0-.276.224-.5.5-.5h1.793L17.5,13.207Z" transform="matrix(1 0 0-1 0 35.99975)" fill="#FFFFFF"/><path d="M9.5,6C5.276,6,1,4.97,1,3s4.276-3,8.5-3s8.5,1.03,8.5,3-4.276,3-8.5,3Zm0-5C4.922,1,2,2.185,2,3s2.922,2,7.5,2s7.5-1.185,7.5-2-2.922-2-7.5-2Z" fill="#FFFFFF"/><path d="M17.5,10c-.276,0-.5-.224-.5-.5L17,3c0-.276.224-.5.5-.5s.5.224.5.5v6.5c0,.276-.224.5-.5.5Z" fill="#FFFFFF"/><path d="M9.5,22C5.276,22,1,20.97,1,19L1,3c0-.276.224-.5.5-.5s.5.224.5.5v16c0,.815,2.922,2,7.5,2c1.065,0,2.051-.063,2.931-.185.273-.04.526.152.564.426s-.152.526-.426.564c-.925.13-1.958.195-3.069.195Z" fill="#FFFFFF"/><path d="M9.5,18C5.276,18,1,16.97,1,15c0-.276.224-.5.5-.5s.5.224.5.5c0,.815,2.922,2,7.5,2c.276,0,.5.224.5.5s-.224.5-.5.5Z" fill="#FFFFFF"/><path d="M9.5,14C5.276,14,1,12.97,1,11c0-.276.224-.5.5-.5s.5.224.5.5c0,.815,2.922,2,7.5,2c1.023,0,1.99-.059,2.875-.176.271-.041.524.157.561.43.036.274-.156.525-.43.561-.928.123-1.939.185-3.006.185Z" fill="#FFFFFF"/><path d="M9.5,10C5.276,10,1,8.97,1,7c0-.276.224-.5.5-.5s.5.224.5.5c0,.815,2.922,2,7.5,2s7.5-1.185,7.5-2c0-.276.224-.5.5-.5s.5.224.5.5c0,1.97-4.276,3-8.5,3Z" fill="#FFFFFF"/></svg>
